<mxfile host="app.diagrams.net" modified="2023-12-07T12:18:05.876Z" agent="Mozilla/5.0 (Windows NT 10.0; Win64; x64) AppleWebKit/537.36 (KHTML, like Gecko) Chrome/119.0.0.0 Safari/537.36" etag="6c4Y614-46qPwj2YeGIs" version="22.1.7" type="github">
  <diagram name="Page-1" id="kHOqpHKTY-Skhh1jvX21">
    <mxGraphModel dx="880" dy="478" grid="1" gridSize="10" guides="1" tooltips="1" connect="1" arrows="1" fold="1" page="1" pageScale="1" pageWidth="827" pageHeight="1169" math="0" shadow="0">
      <root>
        <mxCell id="0" />
        <mxCell id="1" parent="0" />
        <mxCell id="pf4q4rkxfVr6c7oyGRqG-47" value="" style="edgeStyle=orthogonalEdgeStyle;rounded=0;orthogonalLoop=1;jettySize=auto;html=1;" edge="1" parent="1" source="pf4q4rkxfVr6c7oyGRqG-48" target="pf4q4rkxfVr6c7oyGRqG-31">
          <mxGeometry relative="1" as="geometry" />
        </mxCell>
        <mxCell id="pf4q4rkxfVr6c7oyGRqG-49" value="" style="edgeStyle=orthogonalEdgeStyle;rounded=0;orthogonalLoop=1;jettySize=auto;html=1;" edge="1" parent="1" source="pf4q4rkxfVr6c7oyGRqG-19" target="pf4q4rkxfVr6c7oyGRqG-48">
          <mxGeometry relative="1" as="geometry">
            <mxPoint x="530" y="220" as="sourcePoint" />
            <mxPoint x="530" y="320" as="targetPoint" />
          </mxGeometry>
        </mxCell>
        <mxCell id="pf4q4rkxfVr6c7oyGRqG-10" value="" style="edgeStyle=orthogonalEdgeStyle;rounded=0;orthogonalLoop=1;jettySize=auto;html=1;" edge="1" parent="1" source="pf4q4rkxfVr6c7oyGRqG-7" target="pf4q4rkxfVr6c7oyGRqG-9">
          <mxGeometry relative="1" as="geometry" />
        </mxCell>
        <mxCell id="pf4q4rkxfVr6c7oyGRqG-7" value="Collect data from branches in the U.K.&lt;span style=&quot;white-space: pre;&quot;&gt;&#x9;&lt;/span&gt;&lt;span style=&quot;white-space: pre;&quot;&gt;&#x9;&lt;/span&gt;&lt;span style=&quot;white-space: pre;&quot;&gt;&#x9;&lt;/span&gt;" style="rounded=0;whiteSpace=wrap;html=1;" vertex="1" parent="1">
          <mxGeometry x="40" y="30" width="120" height="60" as="geometry" />
        </mxCell>
        <mxCell id="pf4q4rkxfVr6c7oyGRqG-12" value="" style="edgeStyle=orthogonalEdgeStyle;rounded=0;orthogonalLoop=1;jettySize=auto;html=1;" edge="1" parent="1" source="pf4q4rkxfVr6c7oyGRqG-9" target="pf4q4rkxfVr6c7oyGRqG-11">
          <mxGeometry relative="1" as="geometry" />
        </mxCell>
        <mxCell id="pf4q4rkxfVr6c7oyGRqG-9" value="Build a ETL Pipeline&lt;span style=&quot;white-space: pre;&quot;&gt;&#x9;&lt;/span&gt;" style="rounded=0;whiteSpace=wrap;html=1;" vertex="1" parent="1">
          <mxGeometry x="240" y="30" width="120" height="60" as="geometry" />
        </mxCell>
        <mxCell id="pf4q4rkxfVr6c7oyGRqG-11" value="Visualise data in sales/ transaction data for insight" style="rounded=0;whiteSpace=wrap;html=1;" vertex="1" parent="1">
          <mxGeometry x="440" y="30" width="120" height="60" as="geometry" />
        </mxCell>
        <mxCell id="pf4q4rkxfVr6c7oyGRqG-13" value="" style="rounded=0;whiteSpace=wrap;html=1;" vertex="1" parent="1">
          <mxGeometry x="40" y="130" width="120" height="60" as="geometry" />
        </mxCell>
        <mxCell id="pf4q4rkxfVr6c7oyGRqG-14" value="" style="rounded=0;whiteSpace=wrap;html=1;" vertex="1" parent="1">
          <mxGeometry x="50" y="140" width="120" height="60" as="geometry" />
        </mxCell>
        <mxCell id="pf4q4rkxfVr6c7oyGRqG-15" value="" style="rounded=0;whiteSpace=wrap;html=1;" vertex="1" parent="1">
          <mxGeometry x="60" y="150" width="120" height="60" as="geometry" />
        </mxCell>
        <mxCell id="pf4q4rkxfVr6c7oyGRqG-18" value="" style="edgeStyle=orthogonalEdgeStyle;rounded=0;orthogonalLoop=1;jettySize=auto;html=1;" edge="1" parent="1" source="pf4q4rkxfVr6c7oyGRqG-16" target="pf4q4rkxfVr6c7oyGRqG-17">
          <mxGeometry relative="1" as="geometry" />
        </mxCell>
        <mxCell id="pf4q4rkxfVr6c7oyGRqG-16" value="CSV from different&amp;nbsp; branches" style="rounded=0;whiteSpace=wrap;html=1;" vertex="1" parent="1">
          <mxGeometry x="70" y="160" width="120" height="60" as="geometry" />
        </mxCell>
        <mxCell id="pf4q4rkxfVr6c7oyGRqG-20" value="" style="edgeStyle=orthogonalEdgeStyle;rounded=0;orthogonalLoop=1;jettySize=auto;html=1;" edge="1" parent="1" source="pf4q4rkxfVr6c7oyGRqG-17" target="pf4q4rkxfVr6c7oyGRqG-19">
          <mxGeometry relative="1" as="geometry" />
        </mxCell>
        <mxCell id="pf4q4rkxfVr6c7oyGRqG-17" value="S3 bucket (Raw Data)" style="rounded=0;whiteSpace=wrap;html=1;align=center;" vertex="1" parent="1">
          <mxGeometry x="270" y="160" width="120" height="60" as="geometry" />
        </mxCell>
        <mxCell id="pf4q4rkxfVr6c7oyGRqG-22" value="" style="edgeStyle=orthogonalEdgeStyle;rounded=0;orthogonalLoop=1;jettySize=auto;html=1;" edge="1" parent="1" source="pf4q4rkxfVr6c7oyGRqG-19" target="pf4q4rkxfVr6c7oyGRqG-21">
          <mxGeometry relative="1" as="geometry" />
        </mxCell>
        <mxCell id="pf4q4rkxfVr6c7oyGRqG-19" value="Lambda Function (ETL process)" style="rounded=0;whiteSpace=wrap;html=1;" vertex="1" parent="1">
          <mxGeometry x="470" y="160" width="120" height="60" as="geometry" />
        </mxCell>
        <mxCell id="pf4q4rkxfVr6c7oyGRqG-21" value="Redshift" style="rounded=0;whiteSpace=wrap;html=1;" vertex="1" parent="1">
          <mxGeometry x="690" y="160" width="120" height="60" as="geometry" />
        </mxCell>
        <mxCell id="pf4q4rkxfVr6c7oyGRqG-23" value="S3 bucket (Raw Data)" style="rounded=0;whiteSpace=wrap;html=1;align=center;" vertex="1" parent="1">
          <mxGeometry x="40" y="585" width="120" height="60" as="geometry" />
        </mxCell>
        <mxCell id="pf4q4rkxfVr6c7oyGRqG-25" value="" style="shape=doubleArrow;whiteSpace=wrap;html=1;" vertex="1" parent="1">
          <mxGeometry x="180" y="585" width="100" height="60" as="geometry" />
        </mxCell>
        <mxCell id="pf4q4rkxfVr6c7oyGRqG-26" value="Lambda Function (ETL process)" style="rounded=0;whiteSpace=wrap;html=1;" vertex="1" parent="1">
          <mxGeometry x="40" y="380" width="120" height="60" as="geometry" />
        </mxCell>
        <mxCell id="pf4q4rkxfVr6c7oyGRqG-27" value="Redshift" style="rounded=0;whiteSpace=wrap;html=1;" vertex="1" parent="1">
          <mxGeometry x="40" y="500" width="120" height="60" as="geometry" />
        </mxCell>
        <mxCell id="pf4q4rkxfVr6c7oyGRqG-30" value="" style="edgeStyle=orthogonalEdgeStyle;rounded=0;orthogonalLoop=1;jettySize=auto;html=1;" edge="1" parent="1" source="pf4q4rkxfVr6c7oyGRqG-28" target="pf4q4rkxfVr6c7oyGRqG-29">
          <mxGeometry relative="1" as="geometry" />
        </mxCell>
        <mxCell id="pf4q4rkxfVr6c7oyGRqG-28" value="EC2" style="rounded=0;whiteSpace=wrap;html=1;" vertex="1" parent="1">
          <mxGeometry x="70" y="260" width="120" height="60" as="geometry" />
        </mxCell>
        <mxCell id="pf4q4rkxfVr6c7oyGRqG-32" value="" style="edgeStyle=orthogonalEdgeStyle;rounded=0;orthogonalLoop=1;jettySize=auto;html=1;" edge="1" parent="1" source="pf4q4rkxfVr6c7oyGRqG-29" target="pf4q4rkxfVr6c7oyGRqG-31">
          <mxGeometry relative="1" as="geometry" />
        </mxCell>
        <mxCell id="pf4q4rkxfVr6c7oyGRqG-29" value="docker" style="rounded=0;whiteSpace=wrap;html=1;" vertex="1" parent="1">
          <mxGeometry x="270" y="260" width="120" height="60" as="geometry" />
        </mxCell>
        <mxCell id="pf4q4rkxfVr6c7oyGRqG-39" value="" style="edgeStyle=orthogonalEdgeStyle;rounded=0;orthogonalLoop=1;jettySize=auto;html=1;" edge="1" parent="1" source="pf4q4rkxfVr6c7oyGRqG-31" target="pf4q4rkxfVr6c7oyGRqG-38">
          <mxGeometry relative="1" as="geometry" />
        </mxCell>
        <mxCell id="pf4q4rkxfVr6c7oyGRqG-31" value="Grafana" style="rounded=0;whiteSpace=wrap;html=1;" vertex="1" parent="1">
          <mxGeometry x="470" y="320" width="120" height="60" as="geometry" />
        </mxCell>
        <mxCell id="pf4q4rkxfVr6c7oyGRqG-36" value="" style="endArrow=classic;html=1;rounded=0;entryX=1;entryY=0.5;entryDx=0;entryDy=0;exitX=0.5;exitY=1;exitDx=0;exitDy=0;" edge="1" parent="1" source="pf4q4rkxfVr6c7oyGRqG-21" target="pf4q4rkxfVr6c7oyGRqG-31">
          <mxGeometry relative="1" as="geometry">
            <mxPoint x="680" y="289.5" as="sourcePoint" />
            <mxPoint x="580" y="289.5" as="targetPoint" />
          </mxGeometry>
        </mxCell>
        <mxCell id="pf4q4rkxfVr6c7oyGRqG-37" value="Visualise Data" style="edgeLabel;resizable=0;html=1;align=center;verticalAlign=middle;" connectable="0" vertex="1" parent="pf4q4rkxfVr6c7oyGRqG-36">
          <mxGeometry relative="1" as="geometry">
            <mxPoint as="offset" />
          </mxGeometry>
        </mxCell>
        <mxCell id="pf4q4rkxfVr6c7oyGRqG-38" value="Monitoring&lt;br&gt;Lambda Function&amp;nbsp;" style="rhombus;whiteSpace=wrap;html=1;rounded=0;" vertex="1" parent="1">
          <mxGeometry x="430" y="440" width="80" height="80" as="geometry" />
        </mxCell>
        <mxCell id="pf4q4rkxfVr6c7oyGRqG-41" value="" style="endArrow=classic;html=1;rounded=0;entryX=0.5;entryY=0;entryDx=0;entryDy=0;" edge="1" parent="1" target="pf4q4rkxfVr6c7oyGRqG-42">
          <mxGeometry width="50" height="50" relative="1" as="geometry">
            <mxPoint x="530" y="360" as="sourcePoint" />
            <mxPoint x="570" y="400" as="targetPoint" />
            <Array as="points">
              <mxPoint x="550" y="360" />
              <mxPoint x="570" y="360" />
              <mxPoint x="570" y="380" />
            </Array>
          </mxGeometry>
        </mxCell>
        <mxCell id="pf4q4rkxfVr6c7oyGRqG-42" value="Monitoring EC2" style="rhombus;whiteSpace=wrap;html=1;" vertex="1" parent="1">
          <mxGeometry x="530" y="440" width="80" height="80" as="geometry" />
        </mxCell>
        <mxCell id="pf4q4rkxfVr6c7oyGRqG-50" value="" style="edgeStyle=orthogonalEdgeStyle;rounded=0;orthogonalLoop=1;jettySize=auto;html=1;" edge="1" parent="1" source="pf4q4rkxfVr6c7oyGRqG-48" target="pf4q4rkxfVr6c7oyGRqG-19">
          <mxGeometry relative="1" as="geometry" />
        </mxCell>
        <mxCell id="pf4q4rkxfVr6c7oyGRqG-48" value="CloudWatch" style="rounded=0;whiteSpace=wrap;html=1;" vertex="1" parent="1">
          <mxGeometry x="490" y="250" width="80" height="40" as="geometry" />
        </mxCell>
      </root>
    </mxGraphModel>
  </diagram>
</mxfile>
